<svg xmlns="http://www.w3.org/2000/svg" viewBox="0 0 64 64" role="img" aria-label="TripGenie">
  <defs>
    <linearGradient id="g" x1="0" y1="0" x2="1" y2="1">
      <stop offset="0%" stop-color="hsl(20 100% 52%)"/>
      <stop offset="100%" stop-color="hsl(198 90% 48%)"/>
    </linearGradient>
    <radialGradient id="glow" cx="50%" cy="50%" r="50%">
      <stop offset="0%" stop-color="hsl(16 85% 56% / 0.35)" />
      <stop offset="100%" stop-color="transparent" />
    </radialGradient>
  </defs>
  <rect width="64" height="64" rx="14" fill="url(#g)"/>
  <circle cx="32" cy="32" r="28" fill="url(#glow)"/>
  <!-- Swirl mark -->
  <path d="M16 36c6-8 26-8 32 0 0 0-3.8 10-16 10S16 36 16 36Zm8-8c2-2 6-2 8 0M44 32c3-.2 5-1.3 7-3.5-3-.2-4.8-1.3-6.4-4.1-.8 2.3-1.1 4.6-.6 7.6Z" fill="white" fill-opacity="0.95"/>
  <!-- Sparkles -->
  <circle cx="18" cy="18" r="2" fill="white"/>
  <circle cx="48" cy="16" r="1.5" fill="white"/>
  <circle cx="50" cy="44" r="1.2" fill="white"/>
</svg>
